<svg data-name="Group 138" xmlns="http://www.w3.org/2000/svg" width="35.832" height="39.38" viewBox="0 0 35.832 39.38"><defs><clipPath id="a"><path data-name="Rectangle 109" fill="#fff" d="M0 0h35.832v39.381H0z"/></clipPath></defs><g data-name="Group 137" clip-path="url(#a)" fill="#fff"><path data-name="Path 6" d="M21.182 34.385H14.65a.814.814 0 01-.815-.815 12.634 12.634 0 00-2.815-8.364c-.014-.014-.025-.028-.037-.041a9.878 9.878 0 01-3.041-7.159 9.974 9.974 0 0119.948 0 9.876 9.876 0 01-3.041 7.159.72.72 0 01-.037.041 12.634 12.634 0 00-2.815 8.364.814.814 0 01-.815.815m-5.737-1.629h4.941a13.968 13.968 0 013.186-8.608.742.742 0 01.088-.1 8.264 8.264 0 002.6-6.041 8.345 8.345 0 00-16.689 0 8.268 8.268 0 002.6 6.041.878.878 0 01.09.1 13.973 13.973 0 013.184 8.608"/><path data-name="Path 7" d="M21.072 37.01h-6.31a.815.815 0 110-1.629h6.313a.815.815 0 010 1.629"/><path data-name="Path 8" d="M20.157 39.38h-4.483a.815.815 0 010-1.629h4.483a.815.815 0 010 1.629"/><path data-name="Path 9" d="M4.054 18.73H.815a.815.815 0 010-1.629h3.239a.815.815 0 010 1.629"/><path data-name="Path 10" d="M35.017 18.73h-3.24a.815.815 0 010-1.629h3.24a.815.815 0 110 1.629"/><path data-name="Path 11" d="M5.823 30.823a.815.815 0 01-.576-1.391l2.291-2.291a.815.815 0 011.152 1.152l-2.291 2.291a.812.812 0 01-.576.239"/><path data-name="Path 12" d="M27.718 8.928a.815.815 0 01-.576-1.391l2.291-2.29A.815.815 0 1130.585 6.4l-2.291 2.29a.812.812 0 01-.576.239"/><path data-name="Path 13" d="M17.916 4.868a.814.814 0 01-.815-.815V.815a.815.815 0 111.629 0v3.239a.814.814 0 01-.815.815"/><path data-name="Path 14" d="M30.008 30.823a.812.812 0 01-.576-.239l-2.291-2.291a.815.815 0 011.152-1.152l2.291 2.291a.815.815 0 01-.576 1.391"/><path data-name="Path 15" d="M8.113 8.928a.812.812 0 01-.576-.239L5.247 6.4a.815.815 0 011.152-1.152l2.291 2.29a.815.815 0 01-.576 1.391"/></g></svg>